<?xml version="1.0" standalone="no"?>
<!DOCTYPE svg PUBLIC "-//W3C//DTD SVG 20010904//EN"
 "http://www.w3.org/TR/2001/REC-SVG-20010904/DTD/svg10.dtd">
<svg version="1.0" xmlns="http://www.w3.org/2000/svg"
 width="1908.000000pt" height="1908.000000pt" viewBox="0 0 1908.000000 1908.000000"
 preserveAspectRatio="xMidYMid meet">
<metadata>
Created by potrace 1.14, written by Peter Selinger 2001-2017
</metadata>
<g transform="translate(0.000000,1908.000000) scale(0.100000,-0.100000)"
fill="#000000" stroke="none">
<path d="M40 12960 l0 -6120 1483 -2 1482 -3 0 -475 0 -475 -1482 -3 -1483 -2
0 -2940 0 -2940 9500 0 9500 0 0 2920 0 2920 -1290 0 -1291 0 -24 25 -25 24 0
468 c1 493 0 486 47 511 16 9 348 12 1302 12 l1281 0 0 6100 0 6100 -9500 0
-9500 0 0 -6120z m13941 -120 l976 0 167 -156 c91 -87 166 -160 166 -164 0 -3
-74 -77 -164 -163 l-164 -157 -696 0 -696 0 0 -555 0 -555 575 0 575 0 138
-123 c75 -68 142 -126 149 -128 6 -2 82 -77 167 -166 l156 -161 0 -604 -1
-603 -154 -170 c-84 -93 -160 -170 -169 -170 -8 0 -70 -58 -136 -128 l-122
-127 -736 0 -737 0 -163 151 c-89 83 -162 154 -162 158 0 5 74 81 165 170
l165 161 705 0 705 0 0 550 0 550 -587 0 -588 0 -292 292 -293 293 0 890 c0
680 -3 894 -12 903 -9 9 -9 12 0 12 7 0 12 16 12 43 l1 42 37 -43 37 -42 976
0z m-3821 0 l975 0 165 -155 c91 -86 165 -160 165 -165 0 -5 -73 -80 -163
-165 l-164 -155 -694 0 -694 0 0 -555 0 -555 574 0 574 0 137 -122 c75 -68
142 -125 148 -128 7 -3 83 -77 170 -166 l157 -160 0 -602 0 -603 -157 -174
c-87 -97 -163 -173 -170 -171 -6 3 -66 -53 -133 -125 l-122 -129 -737 0 -738
0 -166 153 c-91 83 -165 154 -164 157 1 3 77 78 168 168 l166 162 707 0 706 0
0 550 0 550 -587 0 -588 0 -292 292 -293 293 0 890 c0 680 -3 894 -12 903 -9
9 -9 12 0 12 7 0 12 15 12 37 l0 37 38 -37 38 -37 974 0z m-1875 -130 c71 -71
135 -129 141 -127 6 1 79 -74 162 -168 l151 -170 1 -608 0 -608 -124 -127
-124 -127 124 -130 124 -130 0 -608 0 -609 -157 -173 c-86 -96 -159 -172 -162
-170 -3 2 -67 -53 -140 -121 l-135 -124 -606 0 -605 0 -130 130 c-76 76 -133
126 -138 121 -6 -6 -72 61 -163 162 l-153 172 0 609 -1 609 126 129 126 129
-126 130 -126 130 0 605 0 606 157 171 c86 95 160 171 165 169 5 -1 71 56 146
128 l137 130 600 0 600 0 130 -130z m9176 0 c67 -72 128 -129 134 -126 7 2 82
-74 169 -169 l156 -173 0 -604 0 -603 -127 -127 -126 -127 61 -68 c33 -37 90
-97 126 -133 l66 -64 0 -607 0 -606 -157 -169 c-86 -93 -162 -171 -167 -173
-6 -2 -70 -60 -142 -128 l-131 -123 -714 0 -714 0 -85 88 c-47 48 -116 120
-155 160 l-70 72 160 160 160 160 692 0 693 0 -2 553 -3 552 -695 3 -695 2
-160 160 -160 161 162 159 161 160 696 0 696 0 -2 548 -3 547 -691 5 -690 5
-162 155 c-89 85 -161 158 -159 163 1 4 76 77 167 162 l165 155 712 0 711 0
123 -130z m-4931 -1210 l0 -320 -320 0 -320 0 0 320 0 320 320 0 320 0 0 -320z
m0 -1445 l0 -315 -320 0 -320 0 0 315 0 315 320 0 320 0 0 -315z m-805 -3695
l0 -475 -2185 0 -2185 0 -3 465 c-1 256 0 471 3 478 3 10 446 12 2187 10
l2183 -3 0 -475z m-7497 188 c18 -18 15 -36 -7 -48 -28 -14 -55 13 -41 41 12
22 30 25 48 7z m1692 -154 c0 -157 1 -166 20 -171 32 -8 24 -20 -25 -36 -37
-13 -45 -13 -45 -2 0 11 -5 11 -30 -2 -68 -34 -140 23 -140 111 0 50 10 78 43
113 25 27 77 39 106 24 20 -11 21 -9 21 34 0 38 -4 47 -22 54 l-23 9 25 10
c49 18 55 20 63 21 4 1 7 -74 7 -165z m7990 -4 c0 -144 2 -170 15 -170 28 0
15 -18 -22 -33 -33 -13 -38 -13 -41 0 -3 11 -7 12 -18 2 -8 -6 -32 -12 -53
-13 -105 -2 -145 149 -60 229 25 25 38 30 80 29 47 0 49 1 49 27 0 38 -9 59
-26 59 -41 0 11 29 69 39 4 0 7 -75 7 -169z m1110 75 c0 -31 3 -35 25 -35 16
0 25 -6 25 -15 0 -9 -9 -15 -25 -15 -25 0 -25 -1 -25 -89 0 -92 9 -113 36 -90
18 15 27 8 18 -15 -6 -17 -48 -32 -74 -27 -31 5 -40 34 -40 127 0 74 -3 93
-16 98 -12 5 -8 15 23 51 20 25 41 45 45 45 4 0 8 -16 8 -35z m-11182 -44 c37
20 65 17 93 -7 13 -12 19 -11 38 2 31 22 87 22 109 1 13 -14 18 -39 20 -116 4
-107 11 -118 60 -100 20 8 22 15 22 99 0 83 -1 90 -20 90 -11 0 -20 4 -20 9 0
11 86 42 94 33 3 -3 6 -56 6 -119 0 -92 3 -113 14 -113 8 0 18 -4 21 -10 4 -6
-42 -10 -129 -10 -84 0 -136 4 -136 10 0 6 7 10 15 10 32 0 33 156 1 188 -15
15 -19 15 -44 2 -24 -14 -27 -22 -30 -80 -4 -77 3 -110 23 -110 8 0 15 -4 15
-10 0 -6 -29 -10 -67 -9 -65 0 -67 1 -45 16 20 14 22 24 22 94 0 99 -25 131
-72 95 -25 -18 -27 -186 -3 -186 8 0 15 -4 15 -10 0 -6 -29 -10 -66 -10 -41 0
-63 4 -59 10 3 6 13 10 21 10 11 0 14 19 14 95 0 78 -3 95 -15 95 -28 0 -15
18 23 33 34 14 37 14 40 -3 3 -16 5 -16 40 1z m550 -6 c67 28 70 29 95 12 29
-19 37 -53 37 -153 0 -59 3 -74 15 -74 8 0 15 -4 15 -10 0 -6 -27 -10 -60 -10
-33 0 -60 4 -60 10 0 6 7 10 15 10 12 0 15 17 15 89 0 102 -12 124 -55 101
-24 -13 -25 -18 -25 -102 0 -72 3 -88 15 -88 8 0 15 -4 15 -10 0 -6 -27 -10
-60 -10 -57 0 -78 11 -45 24 23 8 22 186 -1 186 -27 0 -10 23 27 35 28 10 35
10 37 -2 3 -9 10 -12 20 -8z m423 7 c33 25 64 16 64 -18 0 -15 -7 -19 -39 -19
-46 0 -54 -14 -55 -90 -1 -68 8 -95 30 -95 11 0 19 -4 19 -10 0 -6 -30 -10
-70 -10 -67 0 -93 12 -50 23 18 5 20 14 20 92 0 78 -2 87 -20 92 -31 8 -24 20
23 36 39 13 42 13 45 -4 3 -17 5 -17 33 3z m243 4 c18 -7 43 -26 55 -42 19
-25 22 -38 19 -87 -4 -48 -9 -63 -35 -89 -62 -62 -166 -42 -200 39 -29 72 6
163 70 182 45 13 53 13 91 -3z m456 -8 c0 -19 1 -20 18 -5 32 29 71 32 98 6
22 -21 24 -30 24 -115 0 -84 2 -93 23 -107 21 -15 18 -16 -48 -16 -66 0 -69 1
-47 16 20 14 22 24 22 92 0 52 -5 84 -14 97 -14 18 -17 18 -43 4 -27 -15 -28
-20 -31 -95 -3 -73 -1 -81 20 -97 23 -17 22 -18 -46 -18 l-70 0 22 20 c19 18
22 31 22 100 0 70 -2 81 -21 90 -24 13 -19 21 24 37 45 16 47 16 47 -9z m7063
16 c35 -6 37 -8 37 -45 0 -46 -11 -50 -26 -11 -13 33 -45 46 -70 27 -23 -16
-12 -42 28 -63 47 -25 88 -67 88 -91 0 -28 -40 -70 -70 -72 -14 -1 -42 -1 -62
-1 l-38 2 0 45 c0 53 9 57 30 12 13 -27 20 -32 50 -32 29 0 36 4 38 22 3 18
-8 29 -48 54 -77 47 -93 99 -44 138 29 23 32 24 87 15z m270 -35 c15 -16 27
-38 27 -49 0 -18 -7 -20 -85 -20 -52 0 -85 -4 -85 -10 0 -24 30 -79 48 -89 33
-17 58 -13 92 15 36 31 50 25 26 -11 -25 -37 -65 -60 -109 -60 -31 0 -45 7
-68 33 -56 62 -36 187 34 217 43 19 86 10 120 -26z m249 14 c10 -9 18 -26 16
-37 -4 -31 -40 -27 -56 7 -17 35 -53 36 -81 1 -25 -32 -27 -74 -6 -115 27 -52
75 -58 122 -16 32 29 40 14 13 -24 -32 -44 -82 -63 -125 -49 -98 32 -99 202
-2 246 38 17 92 11 119 -13z m223 13 c41 -18 75 -69 75 -114 0 -105 -95 -171
-181 -127 -92 48 -90 200 4 240 41 18 60 18 102 1z m193 -11 c67 28 70 29 95
12 29 -19 37 -53 37 -153 0 -59 3 -74 15 -74 8 0 15 -4 15 -10 0 -6 -27 -10
-60 -10 -33 0 -60 4 -60 10 0 6 7 10 15 10 12 0 15 17 15 89 0 102 -12 124
-55 101 -24 -13 -25 -18 -25 -102 0 -72 3 -88 15 -88 8 0 15 -4 15 -10 0 -6
-27 -10 -60 -10 -57 0 -78 11 -45 24 23 8 22 186 -1 186 -27 0 -10 23 27 35
28 10 35 10 37 -2 3 -9 10 -12 20 -8z m610 10 c2 -2 2 -20 0 -41 l-3 -39 -17
31 c-20 36 -52 49 -73 28 -19 -19 -9 -41 25 -59 51 -27 90 -66 90 -92 0 -57
-44 -84 -127 -75 l-43 4 0 44 c0 52 11 56 31 12 12 -28 19 -33 49 -33 28 0 36
4 38 22 3 17 -9 29 -52 57 -60 38 -76 70 -57 112 14 32 46 45 96 37 22 -3 41
-7 43 -8z m298 2 c31 20 64 9 64 -22 0 -27 -17 -36 -43 -23 -34 18 -47 -7 -47
-94 0 -71 2 -80 20 -85 43 -11 17 -23 -51 -23 -44 0 -68 4 -64 10 3 6 13 10
21 10 11 0 14 19 14 94 0 90 -1 95 -22 99 -20 3 -16 7 22 25 37 18 47 19 54 8
8 -12 13 -12 32 1z m250 -20 c12 -12 24 -34 28 -49 l6 -28 -86 0 -86 0 6 -32
c7 -40 48 -78 83 -78 15 0 36 12 53 30 36 38 47 24 17 -21 -14 -22 -38 -39
-64 -48 -57 -20 -99 -2 -124 53 -24 52 -23 80 1 134 32 71 115 90 166 39z
m222 18 c2 -2 2 -20 0 -41 l-3 -39 -17 31 c-20 36 -52 49 -73 28 -19 -19 -9
-41 25 -59 51 -27 90 -66 90 -92 0 -57 -44 -84 -127 -75 l-43 4 0 44 c0 52 11
56 31 12 12 -28 19 -33 49 -33 28 0 36 4 38 22 3 17 -9 29 -52 57 -60 38 -76
70 -57 112 14 32 46 45 96 37 22 -3 41 -7 43 -8z m-9658 -81 c0 -95 10 -124
43 -124 39 0 47 19 47 107 0 66 -3 83 -14 83 -8 0 -18 5 -21 10 -4 6 13 10 44
10 l51 0 0 -105 c0 -87 3 -105 15 -105 30 0 14 -20 -27 -32 -31 -9 -43 -9 -45
-1 -3 8 -14 8 -38 -3 -36 -15 -58 -11 -87 14 -15 12 -18 32 -18 105 0 70 -4
95 -17 109 -15 17 -14 18 25 18 l42 0 0 -86z m6515 -1294 l0 -425 -2535 0
-2535 0 -3 415 c-1 228 0 421 3 428 3 10 516 12 2537 10 l2533 -3 0 -425z"/>
<path d="M6990 11617 l0 -582 -129 -129 -130 -129 130 -137 129 -137 0 -577 0
-576 560 0 560 0 0 582 0 583 127 127 128 128 -125 125 -125 125 -5 588 -5
587 -557 3 -558 2 0 -583z"/>
<path d="M8589 6544 c-18 -20 -46 -42 -61 -50 -19 -10 -28 -22 -28 -39 0 -32
17 -32 64 0 l36 24 0 -149 0 -150 25 0 25 0 0 200 c0 223 -1 226 -61 164z"/>
<path d="M8797 6473 c-10 -54 -17 -101 -17 -105 0 -14 57 -8 70 7 14 17 62 20
90 5 23 -12 39 -59 33 -94 -6 -31 -47 -66 -78 -66 -23 0 -65 38 -65 58 0 7
-14 12 -31 12 -29 0 -31 -2 -24 -27 26 -106 190 -120 241 -22 7 15 14 51 14
80 0 45 -4 55 -35 86 -34 34 -38 35 -94 31 l-58 -4 8 35 c5 20 9 39 9 44 0 4
36 7 80 7 79 0 80 0 80 25 l0 25 -103 0 -102 0 -18 -97z"/>
<path d="M5776 6388 c-35 -55 -27 -132 17 -163 27 -19 42 -19 61 1 22 21 22
131 0 162 -20 29 -59 29 -78 0z"/>
<path d="M13761 6384 c-59 -75 19 -223 83 -158 20 19 21 118 3 154 -18 36 -59
38 -86 4z"/>
<path d="M4974 6402 c-35 -23 -43 -90 -19 -149 18 -42 30 -53 62 -53 46 0 68
83 42 159 -15 43 -55 63 -85 43z"/>
<path d="M12732 6394 c-37 -26 -28 -44 23 -44 38 0 45 3 45 20 0 10 -9 24 -19
30 -25 13 -22 13 -49 -6z"/>
<path d="M13216 6388 c-22 -31 -20 -101 4 -148 17 -33 26 -40 50 -40 43 0 64
36 58 101 -9 89 -75 140 -112 87z"/>
<path d="M14558 6399 c-10 -5 -18 -19 -18 -29 0 -17 7 -20 45 -20 49 0 58 15
27 43 -21 19 -30 20 -54 6z"/>
<path d="M7750 5055 l0 -177 105 4 c99 3 106 5 132 31 38 37 39 99 2 131 -26
22 -26 23 -8 45 26 32 24 74 -5 108 -23 27 -29 28 -125 31 l-101 4 0 -177z
m184 109 c20 -19 21 -48 2 -63 -8 -7 -40 -13 -73 -14 l-58 -2 -3 48 -3 47 60
0 c41 0 65 -5 75 -16z m4 -140 c28 -20 30 -69 3 -84 -11 -5 -47 -10 -80 -10
l-61 0 0 55 0 55 58 0 c36 0 66 -6 80 -16z"/>
<path d="M8570 5205 c0 -20 5 -25 25 -25 20 0 25 5 25 25 0 20 -5 25 -25 25
-20 0 -25 -5 -25 -25z"/>
<path d="M9350 5055 c0 -168 1 -175 20 -175 11 0 20 4 20 9 0 6 15 4 33 -4 43
-18 82 -9 112 26 86 103 -6 277 -116 219 -18 -10 -19 -7 -19 45 0 52 -1 55
-25 55 l-25 0 0 -175z m149 19 c35 -45 22 -136 -21 -150 -38 -12 -67 4 -77 43
-27 95 46 173 98 107z"/>
<path d="M9880 5055 l0 -175 25 0 25 0 0 175 0 175 -25 0 -25 0 0 -175z"/>
<path d="M9990 5056 l0 -176 25 0 25 0 -2 173 c-3 170 -3 172 -25 175 l-23 3
0 -175z"/>
<path d="M10273 5219 c-24 -13 -57 -74 -48 -89 10 -16 45 -12 45 5 0 23 37 55
63 55 31 0 57 -29 57 -64 0 -22 -18 -45 -79 -104 -75 -73 -101 -107 -101 -131
0 -7 40 -11 115 -11 l115 0 0 25 c0 24 -2 25 -77 25 l-78 1 60 56 c77 72 95
99 95 145 0 56 -34 90 -96 94 -27 2 -59 -1 -71 -7z"/>
<path d="M8113 5124 c-62 -31 -80 -147 -32 -208 21 -27 79 -48 107 -39 81 25
102 52 102 127 0 62 -14 93 -52 116 -39 24 -82 25 -125 4z m102 -49 c33 -32
35 -105 5 -135 -25 -25 -72 -26 -92 -2 -48 53 -18 161 45 162 10 0 29 -11 42
-25z"/>
<path d="M8760 5130 c-8 -5 -30 -7 -47 -4 l-33 6 0 -126 0 -126 25 0 c24 0 24
2 27 91 3 87 5 93 30 112 25 19 28 19 52 3 25 -16 26 -21 26 -111 l0 -95 26 0
26 0 -4 111 c-3 102 -5 112 -27 130 -25 20 -76 25 -101 9z"/>
<path d="M8992 5127 c-38 -22 -56 -58 -56 -112 1 -107 67 -158 157 -120 13 5
17 2 17 -14 0 -29 -35 -61 -65 -61 -14 0 -34 9 -45 20 -25 25 -65 28 -56 4 3
-9 6 -20 6 -25 0 -16 58 -39 99 -39 31 0 49 7 73 29 l33 29 3 147 4 146 -34
-1 c-18 0 -51 2 -73 5 -24 3 -49 0 -63 -8z m93 -52 c34 -33 34 -93 1 -132 -21
-24 -27 -26 -52 -18 -33 12 -60 70 -50 110 8 31 40 65 61 65 9 0 27 -11 40
-25z"/>
<path d="M9658 5123 c-58 -36 -73 -149 -27 -207 25 -31 77 -47 122 -36 46 10
54 16 72 50 14 27 13 28 -10 32 -18 4 -29 -1 -40 -18 -29 -44 -98 -27 -118 28
-5 15 4 18 86 20 l92 3 -2 30 c-6 73 -48 115 -115 115 -18 0 -45 -8 -60 -17z
m100 -39 c12 -8 22 -24 22 -35 0 -17 -7 -19 -60 -19 -66 0 -77 13 -40 50 24
24 48 25 78 4z"/>
<path d="M8320 5124 c0 -4 16 -29 35 -55 19 -27 35 -52 35 -56 0 -4 -18 -33
-40 -64 -22 -32 -40 -60 -40 -63 0 -3 12 -6 28 -6 21 0 33 10 55 45 16 25 30
45 32 45 2 0 16 -20 32 -45 22 -35 34 -45 56 -45 15 0 27 3 27 6 0 3 -18 31
-40 63 -22 31 -40 61 -40 65 0 5 16 30 35 56 19 26 35 50 35 54 0 3 -12 6 -27
6 -21 0 -34 -9 -52 -37 l-24 -37 -23 30 c-13 16 -24 32 -24 37 0 4 -13 7 -30
7 -16 0 -30 -3 -30 -6z"/>
<path d="M8570 5005 l0 -125 25 0 25 0 0 125 0 125 -25 0 -25 0 0 -125z"/>
<path d="M11512 5097 c-9 -10 -2 -23 33 -57 l45 -44 45 44 c35 34 42 47 33 57
-9 11 -17 8 -45 -19 l-33 -32 -33 32 c-28 27 -36 30 -45 19z"/>
<path d="M16459 6831 l-29 -29 0 -437 c0 -459 2 -482 45 -499 9 -3 590 -6
1291 -6 1267 0 1274 0 1274 20 0 20 -7 20 -1273 20 -977 0 -1276 3 -1285 12
-17 17 -17 879 0 896 9 9 308 12 1285 12 1266 0 1273 0 1273 20 0 20 -7 20
-1276 20 l-1276 0 -29 -29z"/>
<path d="M17658 6564 c-60 -32 -73 -118 -25 -161 12 -12 61 -33 109 -47 94
-29 118 -49 98 -86 -14 -27 -42 -40 -85 -40 -50 0 -91 24 -103 60 -6 16 -15
30 -21 30 -90 0 -17 -130 82 -145 65 -10 112 1 151 35 40 36 51 79 32 125 -17
39 -47 57 -136 80 -99 26 -123 56 -74 94 45 36 116 21 141 -29 7 -14 17 -25
23 -24 5 1 17 2 25 3 38 3 6 80 -45 106 -37 19 -137 19 -172 -1z"/>
<path d="M17993 6553 c-16 -11 -23 -26 -23 -48 0 -24 -5 -34 -20 -38 -11 -3
-20 -13 -20 -22 0 -9 9 -19 20 -22 18 -5 20 -14 20 -107 0 -129 11 -145 93
-138 28 3 18 46 -10 50 -22 3 -23 8 -23 97 0 89 1 94 23 97 14 2 22 10 22 23
0 13 -8 21 -22 23 -20 3 -23 9 -23 53 0 53 -3 56 -37 32z"/>
<path d="M18628 6550 c-20 -15 -28 -31 -28 -52 0 -30 0 -31 -45 -26 -29 4 -51
1 -65 -9 -13 -9 -20 -10 -20 -3 0 6 -12 10 -27 8 l-28 -3 -3 -142 -3 -143 31
0 30 0 0 84 c0 116 20 163 63 150 10 -3 24 -1 30 5 25 20 34 -6 40 -108 6
-118 16 -136 73 -134 43 1 45 3 38 30 -4 12 -16 23 -28 25 -19 3 -21 10 -24
96 l-3 92 26 0 c20 0 25 5 25 25 0 20 -5 25 -24 25 -23 0 -25 4 -28 51 l-3 51
-27 -22z"/>
<path d="M18189 6471 c-47 -15 -67 -30 -77 -61 -9 -24 -8 -30 3 -30 7 0 20 -2
27 -5 9 -4 19 4 25 18 22 48 114 40 121 -10 3 -20 -2 -23 -58 -29 -70 -8 -121
-37 -130 -74 -10 -41 9 -81 46 -96 45 -19 73 -18 117 5 29 15 37 16 37 5 0 -9
11 -14 28 -14 l27 0 -3 118 c-4 134 -13 156 -69 171 -43 12 -57 12 -94 2z
m101 -176 c0 -14 -11 -37 -25 -50 -39 -40 -105 -30 -105 16 0 23 11 29 74 44
28 7 52 13 54 14 1 1 2 -10 2 -24z"/>
</g>
</svg>
